<mxfile host="app.diagrams.net" agent="Mozilla/5.0 (Windows NT 10.0; Win64; x64; rv:128.0) Gecko/20100101 Firefox/128.0" version="24.7.6">
  <diagram id="C5RBs43oDa-KdzZeNtuy" name="Page-1">
    <mxGraphModel dx="989" dy="539" grid="1" gridSize="10" guides="1" tooltips="1" connect="1" arrows="1" fold="1" page="1" pageScale="1" pageWidth="827" pageHeight="1169" math="0" shadow="0">
      <root>
        <mxCell id="WIyWlLk6GJQsqaUBKTNV-0" />
        <mxCell id="WIyWlLk6GJQsqaUBKTNV-1" parent="WIyWlLk6GJQsqaUBKTNV-0" />
        <mxCell id="O_StukFePBaRr7ty4QPw-5" style="edgeStyle=orthogonalEdgeStyle;rounded=0;orthogonalLoop=1;jettySize=auto;html=1;exitX=1;exitY=0.5;exitDx=0;exitDy=0;exitPerimeter=0;" edge="1" parent="WIyWlLk6GJQsqaUBKTNV-1" source="O_StukFePBaRr7ty4QPw-0" target="O_StukFePBaRr7ty4QPw-4">
          <mxGeometry relative="1" as="geometry" />
        </mxCell>
        <mxCell id="O_StukFePBaRr7ty4QPw-0" value="" style="strokeWidth=2;html=1;shape=mxgraph.flowchart.start_2;whiteSpace=wrap;" vertex="1" parent="WIyWlLk6GJQsqaUBKTNV-1">
          <mxGeometry x="40" y="60" width="40" height="40" as="geometry" />
        </mxCell>
        <mxCell id="O_StukFePBaRr7ty4QPw-1" value="" style="whiteSpace=wrap;html=1;aspect=fixed;" vertex="1" parent="WIyWlLk6GJQsqaUBKTNV-1">
          <mxGeometry x="480" y="50" width="320" height="320" as="geometry" />
        </mxCell>
        <mxCell id="O_StukFePBaRr7ty4QPw-13" style="edgeStyle=orthogonalEdgeStyle;rounded=0;orthogonalLoop=1;jettySize=auto;html=1;exitX=1;exitY=0.5;exitDx=0;exitDy=0;entryX=0;entryY=0.5;entryDx=0;entryDy=0;" edge="1" parent="WIyWlLk6GJQsqaUBKTNV-1" source="O_StukFePBaRr7ty4QPw-3" target="O_StukFePBaRr7ty4QPw-1">
          <mxGeometry relative="1" as="geometry" />
        </mxCell>
        <mxCell id="O_StukFePBaRr7ty4QPw-3" value="Send data to PC" style="rounded=1;whiteSpace=wrap;html=1;" vertex="1" parent="WIyWlLk6GJQsqaUBKTNV-1">
          <mxGeometry x="90" y="180" width="120" height="60" as="geometry" />
        </mxCell>
        <mxCell id="O_StukFePBaRr7ty4QPw-6" value="" style="edgeStyle=orthogonalEdgeStyle;rounded=0;orthogonalLoop=1;jettySize=auto;html=1;fillColor=#d5e8d4;strokeColor=#82b366;" edge="1" parent="WIyWlLk6GJQsqaUBKTNV-1" source="O_StukFePBaRr7ty4QPw-4" target="O_StukFePBaRr7ty4QPw-3">
          <mxGeometry relative="1" as="geometry" />
        </mxCell>
        <mxCell id="O_StukFePBaRr7ty4QPw-11" value="Yes" style="edgeLabel;html=1;align=center;verticalAlign=middle;resizable=0;points=[];" vertex="1" connectable="0" parent="O_StukFePBaRr7ty4QPw-6">
          <mxGeometry x="-0.1556" relative="1" as="geometry">
            <mxPoint as="offset" />
          </mxGeometry>
        </mxCell>
        <mxCell id="O_StukFePBaRr7ty4QPw-7" style="edgeStyle=orthogonalEdgeStyle;rounded=0;orthogonalLoop=1;jettySize=auto;html=1;exitX=1;exitY=0.5;exitDx=0;exitDy=0;entryX=0.5;entryY=0;entryDx=0;entryDy=0;fillColor=#f8cecc;strokeColor=#b85450;" edge="1" parent="WIyWlLk6GJQsqaUBKTNV-1" source="O_StukFePBaRr7ty4QPw-4" target="O_StukFePBaRr7ty4QPw-4">
          <mxGeometry relative="1" as="geometry">
            <mxPoint x="150" as="targetPoint" />
            <mxPoint x="279.92" y="42.24" as="sourcePoint" />
            <Array as="points">
              <mxPoint x="241" y="80" />
              <mxPoint x="241" y="10" />
              <mxPoint x="150" y="10" />
            </Array>
          </mxGeometry>
        </mxCell>
        <mxCell id="O_StukFePBaRr7ty4QPw-12" value="No" style="edgeLabel;html=1;align=center;verticalAlign=middle;resizable=0;points=[];" vertex="1" connectable="0" parent="O_StukFePBaRr7ty4QPw-7">
          <mxGeometry x="-0.3232" relative="1" as="geometry">
            <mxPoint as="offset" />
          </mxGeometry>
        </mxCell>
        <mxCell id="O_StukFePBaRr7ty4QPw-4" value="Connected?" style="rhombus;whiteSpace=wrap;html=1;" vertex="1" parent="WIyWlLk6GJQsqaUBKTNV-1">
          <mxGeometry x="110" y="40" width="80" height="80" as="geometry" />
        </mxCell>
        <mxCell id="O_StukFePBaRr7ty4QPw-14" value="PC" style="text;html=1;align=center;verticalAlign=middle;resizable=0;points=[];autosize=1;strokeColor=none;fillColor=none;" vertex="1" parent="WIyWlLk6GJQsqaUBKTNV-1">
          <mxGeometry x="630" y="28" width="40" height="30" as="geometry" />
        </mxCell>
      </root>
    </mxGraphModel>
  </diagram>
</mxfile>
